<svg xmlns="http://www.w3.org/2000/svg" id="a" viewBox="0 0 269.1 86.65"><defs><style>.d,.e,.k,.l{stroke-width:0}.e,.u{isolation:isolate}.d{fill:#eaceb1}.e{fill:#f8e9db;opacity:.3}.k{fill:#f7ddc4}.l{fill:#1f1f1f}</style></defs><g class="u"><path d="M98.6 54.65a13.97 13.97 0 0 1-5.05-7.5l6.35-2.5a9.35 9.35 0 0 0 2.55 4.55 6.31 6.31 0 0 0 4.5 1.7 6.6 6.6 0 0 0 3.85-1.12c1.07-.75 1.6-1.79 1.6-3.12s-.51-2.43-1.52-3.28c-1.02-.85-2.83-1.76-5.42-2.72l-2.2-.8c-2.3-.8-4.27-2.02-5.9-3.67a8.49 8.49 0 0 1-2.45-6.22c0-1.87.48-3.57 1.45-5.1a10 10 0 0 1 4.1-3.62 13.3 13.3 0 0 1 6-1.32c3.23 0 5.78.76 7.65 2.27a11.73 11.73 0 0 1 3.85 5.33l-5.95 2.5a6.04 6.04 0 0 0-1.92-2.78c-.92-.75-2.09-1.12-3.53-1.12s-2.67.34-3.62 1.03c-.95.68-1.42 1.58-1.42 2.67s.45 1.98 1.35 2.73 2.38 1.47 4.45 2.17l2.25.75c3.1 1.07 5.48 2.47 7.12 4.22 1.65 1.75 2.48 4.04 2.48 6.88 0 2.33-.6 4.31-1.8 5.92a10.9 10.9 0 0 1-4.62 3.62c-1.88.8-3.83 1.2-5.83 1.2-3.13 0-5.9-.88-8.3-2.65Z" class="l"/><path d="m138.25 57.05.4-3.6h-.4a7.72 7.72 0 0 1-3.02 2.75 9.56 9.56 0 0 1-4.62 1.1 11.87 11.87 0 0 1-10.72-6.52c-1.08-2.05-1.62-4.39-1.62-7.03s.54-4.93 1.62-7a11.8 11.8 0 0 1 10.72-6.55c1.73 0 3.27.38 4.6 1.12a8.4 8.4 0 0 1 3.05 2.77h.4v-3.1h6.1v36.3h-6.5V57.04Zm-3.1-6.75a6.92 6.92 0 0 0 2.55-2.65c.63-1.13.95-2.43.95-3.9s-.32-2.77-.95-3.9a6.76 6.76 0 0 0-9.4-2.62 6.76 6.76 0 0 0-2.55 2.62c-.63 1.13-.95 2.43-.95 3.9s.32 2.77.95 3.9a6.92 6.92 0 0 0 5.95 3.6c1.2 0 2.38-.32 3.45-.95Zm13.05 4.15c-1.6-1.9-2.4-4.55-2.4-7.95V31h6.55v14.7c0 1.73.42 3.09 1.25 4.08a4.11 4.11 0 0 0 3.3 1.47 5.4 5.4 0 0 0 4.45-2.05A8.04 8.04 0 0 0 163 44V31h6.55v25.5h-6.15v-3.2h-.4a8.03 8.03 0 0 1-3.23 2.92 9.76 9.76 0 0 1-4.58 1.08c-3.07 0-5.4-.95-7-2.85Z" class="l"/><path d="M175.85 55.53a12.55 12.55 0 0 1-4.82-4.85c-1.15-2.05-1.73-4.36-1.73-6.92s.58-4.83 1.73-6.9a12.63 12.63 0 0 1 4.82-4.88c2.07-1.18 4.42-1.77 7.05-1.77s4.93.59 7 1.77a12.5 12.5 0 0 1 4.82 4.88c1.15 2.07 1.73 4.37 1.73 6.9s-.58 4.88-1.73 6.92a12.62 12.62 0 0 1-4.82 4.85c-2.07 1.18-4.4 1.77-7 1.77s-4.98-.59-7.05-1.77Zm10.55-5.18a6.58 6.58 0 0 0 2.55-2.6c.63-1.13.95-2.47.95-4s-.32-2.82-.95-3.95a6.58 6.58 0 0 0-2.55-2.6c-1.07-.6-2.23-.9-3.5-.9s-2.43.3-3.5.9a6.78 6.78 0 0 0-2.58 2.6c-.65 1.13-.98 2.45-.98 3.95s.33 2.83.98 3.97a6.64 6.64 0 0 0 2.58 2.62c1.07.6 2.23.9 3.5.9s2.43-.3 3.5-.9Z" class="l"/><path d="M201.6 55.53c-2.07-1.18-3.68-2.8-4.83-4.85s-1.73-4.36-1.73-6.92.58-4.83 1.73-6.9a12.58 12.58 0 0 1 4.83-4.88c2.07-1.18 4.42-1.77 7.05-1.77s4.93.59 7 1.77a12.58 12.58 0 0 1 4.83 4.88c1.15 2.07 1.72 4.37 1.72 6.9s-.57 4.88-1.72 6.92-2.76 3.67-4.83 4.85c-2.07 1.18-4.4 1.77-7 1.77s-4.98-.59-7.05-1.77Zm10.55-5.18a6.58 6.58 0 0 0 2.55-2.6c.63-1.13.95-2.47.95-4s-.32-2.82-.95-3.95a6.58 6.58 0 0 0-2.55-2.6c-1.07-.6-2.23-.9-3.5-.9s-2.43.3-3.5.9a6.85 6.85 0 0 0-2.58 2.6c-.65 1.13-.97 2.45-.97 3.95s.32 2.83.97 3.97a6.64 6.64 0 0 0 2.58 2.62c1.07.6 2.23.9 3.5.9s2.43-.3 3.5-.9Z" class="l"/><path d="M224.12 55.4a10.16 10.16 0 0 1-4.03-4.95l5.85-2.55a5.87 5.87 0 0 0 5.7 3.64c1.2 0 2.2-.19 3-.58.8-.38 1.2-1.01 1.2-1.88s-.37-1.46-1.1-1.88c-.73-.42-1.83-.79-3.3-1.12l-3-.65a10.95 10.95 0 0 1-5.15-2.73 6.55 6.55 0 0 1-2.05-4.92 6.4 6.4 0 0 1 1.32-3.95 8.42 8.42 0 0 1 3.6-2.7 13 13 0 0 1 5.03-.95c5.27 0 8.78 1.85 10.55 5.55l-5.6 2.45c-1-1.8-2.6-2.7-4.8-2.7-1.13 0-2.03.21-2.7.62-.67.42-1 .94-1 1.58 0 1.2 1.13 2.1 3.4 2.7l3.75.9c2.53.63 4.44 1.6 5.73 2.9a6.58 6.58 0 0 1 1.92 4.8c0 1.63-.47 3.08-1.42 4.33s-2.25 2.22-3.9 2.92a13.9 13.9 0 0 1-5.48 1.05c-3.1 0-5.61-.63-7.52-1.9Z" class="l"/><path d="M242.2 20.7h6.55v9.05l-.4 4.45h.4a7.93 7.93 0 0 1 3.2-2.9 9.7 9.7 0 0 1 4.55-1.1c3.1 0 5.48.92 7.12 2.77 1.65 1.85 2.48 4.41 2.48 7.68V56.5h-6.55V41.45c0-1.63-.44-2.9-1.32-3.8a4.72 4.72 0 0 0-3.53-1.35c-1.73 0-3.16.7-4.28 2.1a7.98 7.98 0 0 0-1.67 5.15V56.5h-6.55V20.7Z" class="l"/></g><circle cx="40.5" cy="40.5" r="37" style="fill:#40403f;stroke:#4a494a;stroke-width:7px"/><path d="m16.3 24.3-1.1-1.4 2.2-1.3c-.58.8-.96 1.72-1.1 2.7ZM25.9 41h-1.8l.3 1.3 1.8-.5c-.2-.2-.3-.5-.3-.8Zm-.7 12-.3.4-.1 1 .3-.1 1.5-.4.1-2.1-1.5 1.2Zm36.2-36.2a47.7 47.7 0 0 0-38.8 1.9c1 .1 2 .3 2.9.7 1.4-.6 2.8-1.2 4.3-1.6 4.6-1.5 9.4-2.3 14.3-2.4 5 0 10 .9 14.8 2.5a75.59 75.59 0 0 0-6.7 21.3 45.67 45.67 0 0 0 1.9 20.4A36.35 36.35 0 0 1 35.8 65c-3.47 0-6.91-.58-10.2-1.7-.7.3-1.5.4-2.2.4l-.2.6c4 1.6 8.3 2.4 12.6 2.5 7.1 0 14-2.4 20.6-6.4-5.4-13.5-2.6-28 5-43.6ZM21.4 31l-1.1-2.1-.5.9.7 1.3.9-.1Z" style="fill:#e17926;stroke-width:0"/><path d="M53.1 39.2c1.2-7.6 3.6-15 7-21.9A46.2 46.2 0 0 0 24.2 19c2.1.5 3.9 1.6 5.4 3.1l.3.3c.6.5.9 1.4.5 2.1a5.59 5.59 0 0 1-2.7 3.2c-1.5.7-3.3.8-4.8.3-.5-.1-1-.2-1.4-.1-.5.1-.9.5-1.1.9l1.1 2.1 2.2-.1c1.9-.1 3.7-.1 5.5.1.8.1 1.7.3 2.5.6l.9.5c.3.3.5.7.6 1 1.2 3.3-1.2 6.2-4.2 7.2-1.2.4-2.4.6-3.6.7H25l.2 1.1 2.1-.6 3-.6c.8-.1 2-.3 2.6.2.3.3.6.7.7 1.2l.9 2.2c.2.6.3 1.3.2 1.9-.2 1.1-.9 2-1.9 2.5-1.8 1-3.6 1.8-5.5 2.6l-1.4.8-.1 1.7c2.2-.6 4.5-.7 6.7-.3l1.2.4c.6.4 1 1.2 1 2s-.3 1.5-.7 2.2a9.04 9.04 0 0 1-4.8 3.8l-2.8.8c-.7.2-1.3.5-2 .6v.1c3.7 1.4 7.6 2.1 11.5 2.1a37.02 37.02 0 0 0 19.4-5.9 39.6 39.6 0 0 1-2.2-20.5Z" style="fill:#f78f20;stroke-width:0"/><path d="M41.4 32.8c1.4-.2 2.7-2 3.1-4.2s-.9-4-3-3.8-3.3 2.3-3 4.5 1.6 3.7 2.9 3.5Z" style="fill:#fdcda0;stroke-width:0"/><path d="M48.6 44.7c-3.8-2.5-5.6-6.6-8.6-10.9-2.8 5.1-4 10.5-7.6 14.5 6 .4 11.3-1.3 16.2-3.6Z" style="fill:#e17827;stroke-width:0"/><path d="M44 52c-4.9-4.5-6.8-11.3-14.1-15.3C31 43 31.2 48.4 27.2 53A29.96 29.96 0 0 0 44 52Z" style="fill:#c86228;stroke-width:0"/><path d="M50 46.7a40.94 40.94 0 0 1-23.8 3.9c1.4-8.1.2-15.9-5.3-23.1a53.92 53.92 0 0 1 32.6-5c-4 8.6-5.8 16.7-3.5 24.2Z" style="fill:none;stroke:#e17827;stroke-miterlimit:10;stroke-width:4px"/><path d="m31.2 23.3-.1-.3-.1-.2-.7-.2H30l-.1-.2a11.67 11.67 0 0 0-7-3.5c-.63-.1-1.27-.1-1.9 0-2.7.7-4.9 4.3-4.6 7 .3 1.8 1.6 2.8 2.9 4l.4.1c.4.1.6-.7.8-1 .2-.5.6-.8 1.1-1l1.5.1c1.6.5 3.3.4 4.8-.2.5-.2.9-.5 1.2-.9.1 0 .2 0 .3-.2l.8-.7.4-.2c.3-.4.5-.9.6-1.4v-1.2Zm10.3 14.5.2-.4c1.2-2.4 2.7-4.6 4.7-6.4 1.8-1.9 3.6-3.5 6-4 1.68-.4 3.42-.4 5.1 0 1 0 2.1.3 3.1.7.9.6 1.7 1.4 2.2 2.3 1.7 2.6 3.2 5.3 4.6 8.1.9 1.7 1.9 3.4 1.9 5.4 0 1.2-.3 2.4-.6 3.6-1 3.1-2.2 6.2-3.7 9.2a16.02 16.02 0 0 1-5.7 7.3c-3.9 2.6-8.8 2.1-13.2 1.5-.7 0-6.9-.7-7-1.3 0-.3 2-1 2.2-1a17.02 17.02 0 0 0 6.7-5.3c.6-.9 1-1.9 1.2-2.9.2-1.5.8-3 1.6-4.4.9-1.3 2-2.2 2-3.9l-.1-1.7c0-.6.3-1 .9-1.4.6-.2.7 0 .9-.4l.1-.4c.2-1.5.8-2.9 1.6-4.2a12 12 0 0 1-6.4 5c-1.61.69-3.38.9-5.1.6a4.59 4.59 0 0 1-3.7-3.3c0-.8.1-1.8.5-2.7ZM33.8 35v-.3l-.2-1.6a1 1 0 0 0-.5-.6h-.2c-.2-.3-.5-.5-.8-.6-.8-.3-1.6-.5-2.5-.6-1.8-.2-3.7-.2-5.5 0-1.9 0-3.5 0-5.1.8a6.43 6.43 0 0 0-2.7 4.3c-.3 1.5 0 3.1.9 4.4 1.5 2 4 2.6 6.3 1.7.1 0 .3 0 .4-.2l.3-.6c.3-.5 1.2-.3 1.7-.3 1.2 0 2.4-.3 3.6-.7 1.6-.6 3-1.7 3.9-3.2.1 0 .2 0 .3-.3l.1-.3.1-1.2-.1-.6V35Zm2.3 10c0-.9-.3-1.6-.6-2.2-.3-.4-.4-.9-.9-1l-.9.1-.3-.5c-.6-.6-1.8-.4-2.6-.3-3.02.3-5.99 1.04-8.8 2.2-1.7.6-3.5 1.2-4.7 2.6a5.96 5.96 0 0 0-1.4 2.1c-.5 2.2.1 5 2.3 6.1 1.4.6 2.9.7 4.4.4.8 0 1.5-.3 2.1-.8l.8-.8c.6-.6 1.3-1 2-1.3 1.9-.7 3.8-1.5 5.6-2.4 1-.5 1.7-1.4 2-2.5l.1-.4.5-.2c.2 0 .4-.3.6-.5-.2 0-.1-.4-.2-.7v.1Zm-.6 11c-.1-.6-.4-1.3-1-1.4h-.4l-.3-.3-1.2-.4c-2.4-.4-4.9-.3-7.3.4-2 .6-5.7 2-5.9 4.4-.1 1 .2 2 .8 2.7.7 1.2 1.9 2 3.3 2.2 1 0 2.1-.3 3-.7 1-.3 1.9-.4 2.8-.8a8.96 8.96 0 0 0 4.5-3.4h.1c.5 0 .9-.3 1.2-.6l.3-.5c.3-.4.3-1 .1-1.6Z" style="fill:#c96328;opacity:.5;isolation:isolate;stroke-width:0"/><path d="M29.7 22.2a12.27 12.27 0 0 0-7-3.5 3.95 3.95 0 0 0-1.9.1c-2.7.7-4.9 4.3-4.6 7 .3 1.7 1.5 2.8 2.8 3.8l.4.2c.4.1.6-.7.8-1 .3-.4.7-.8 1.1-.9.5-.1 1 0 1.4.1 1.6.5 3.3.4 4.9-.2a5.3 5.3 0 0 0 2.7-3.2c.2-.4.2-.8.1-1.2l-.6-.9-.1-.3Z" class="k"/><path d="m27.7 27.8.5-.3c-1.6-.2-2.2 0-2.6-.1s-1.7 0-2.2-.2-1.1-.1-1.5-.2l-1.8-.3c-.9-.1-1.7-.5-2.3-.1l-1 .7c.71 1 1.63 1.82 2.7 2.4.4.1.6-.7.8-1 .3-.4.7-.8 1.1-.9.5-.1 1 0 1.4.1 1.7.6 3.4.5 4.9-.1Z" class="d"/><path d="m30.6 23.4-.6-.9-.3-.3a12.27 12.27 0 0 0-7-3.5 3.95 3.95 0 0 0-1.9.1 4.4 4.4 0 0 0-2.2 4c.2 3.5.9 3.5 2.8 5.1.5-.1 1 0 1.4.1 1.6.5 3.3.4 4.9-.2a5.3 5.3 0 0 0 2.7-3.2c.2-.4.3-.8.2-1.2Z" class="e"/><path d="M30.9 22.9c-.3-.2-.5-.3-.8-.3l-.9-.3-1.5-.4c-1.2-.3-2.6-.6-3.7 0-.59.29-1 .85-1.1 1.5-.1.6.1 1.2.5 1.6.53.42 1.15.73 1.8.9 1.1.5 2.3.8 3.5 1h.4l.2-.2c.4-.2.7-.5 1-.9s.5-.9.6-1.4l.1-1.1-.1-.4Z" style="fill:#34b9eb;stroke-width:0"/><path d="m67.3 38-2.8-5.2-.5-.9-.2-.3-.4-.6-.2-.3-.6-.9c-.5-1-1.3-1.8-2.2-2.3-1-.4-2-.6-3.1-.7-1.7-.4-3.4-.4-5.1-.1a12 12 0 0 0-6 4.1c-1.9 1.9-3.5 4-4.7 6.4l-.2.4c-.4.9-.5 1.9-.3 2.8.5 1.7 1.9 3 3.7 3.3H47c1-.1 2-.4 2.9-.8 2.6-.9 4.9-2.6 6.4-4.9l-1.1 2.1-.6 2.1-.1.4c-.2.3-.6.3-.9.4l-.3.2c-.3 5.9.7 11.8 2.9 17.2a45.75 45.75 0 0 1-9.4 4.6c4.2.6 8.7.8 12.4-1.6 2.7-1.8 4.4-4.5 5.7-7.4 1.4-3 2.6-6 3.6-9.2.4-1.2.6-2.4.6-3.6 0-1.8-1-3.5-1.8-5.2Z" class="k"/><path d="M53.4 44.9v2.8l.1.8v.2l.1 1 .3 2.1v.2l.1.8.1.3.1.7.1.4.1.6.1.4.2.6.1.4.2.6.1.4.2.6.1.4.2.7.1.3.4 1-1.1.7-.1.1-.9.7-.1.1-1 .6-.1.1-1 .5-.2.1-1 .5-.1.1-1 .5-.1.1-1.1.4h-.1l-1.1.4c4.2.6 8.7.8 12.4-1.6 1.1-.7 2.1-1.7 2.9-2.7a27.53 27.53 0 0 0-9-15.9Zm8.7-12c1.1-1.9.9-1.6.2-3.6a5.73 5.73 0 0 0-1.8-1.7 77.55 77.55 0 0 0-5-1 7.31 7.31 0 0 1 2.9 5.7c0 1.7-1.5 4.4-2.2 5.8s-3.7 7.3.6 1.9c1.3-1.7 2.9-2.7 3.8-4.3l1.5-2.8Z" class="d"/><path d="M57.4 27.9c-.4-.4-1.2-1.3-1.8-1.5-1-.1-2 0-3 .2-2.4.6-4.4 2.3-6 4.1-1.9 1.9-3.5 4-4.7 6.4l-.2.4c-.4.9-.5 1.9-.3 2.8a4.41 4.41 0 0 0 3.4 3.2c3.6-.2 6.9-1.8 9.4-4.3 4.1-4.1 5.4-9.1 3.2-11.3Z" class="e"/><path d="m46.2 34.7-.9.6-2.1 1.8c-.7.6-1.7 1.2-2 2.2a3 3 0 0 0 .1 1.6c.2.9.8 1.7 1.5 2.2 1.4.9 3 .1 4.1-.8s2.4-1.6 3-2.9-.2-2.4-.9-3.3-1.6-1.7-2.7-1.4h-.1Z" style="fill:#9f87bf;stroke-width:0"/><path d="M49.3 36.3 42 42.2l.8.8c1.4.9 3 .1 4.1-.8s2.4-1.6 3-2.9c.6-.9 0-2.1-.6-3Z" style="opacity:.1;fill:#fff;isolation:isolate;stroke-width:0"/><path d="m32.5 32.2-.9-.5c-.8-.3-1.6-.5-2.5-.6-1.8-.2-3.7-.2-5.5-.1-1.9 0-3.5 0-5.1.9a6.2 6.2 0 0 0-2.7 4.3c-.3 1.5 0 3.1.9 4.4 1.5 1.9 4 2.6 6.3 1.7l.4-.2.3-.6c.3-.5 1.2-.3 1.7-.3 1.2-.1 2.4-.3 3.6-.7 3-1.1 5.4-3.9 4.2-7.2a3.04 3.04 0 0 0-.7-1.1Z" class="k"/><path d="M24.6 43.5c.5-.1-.1-1.4-.5-2.2l-.2-.1c.4-.2 1.1-.1 1.5-.1 1.2-.1 2.4-.3 3.6-.7a7.26 7.26 0 0 0 3.3-2.4c-2.6-.3-3.8 2.2-7.8 1.8-1.57 0-3.14.1-4.7.3-1.5 0-2.7-.7-3.2.2l.1.2a5 5 0 0 0 3.4 2h.1l.9.1 3.2.8.3.1Z" class="d"/><path d="m32.5 32.2-.9-.5c-.8-.3-1.6-.5-2.5-.6-1.8-.2-3.7-.2-5.5-.1-1.9 0-4.4.9-4.7 3.9-.5 5.7 8.2 5.8 10.4 5.3a5 5 0 0 0 4.13-5.74l-.03-.16-.3-1a2.03 2.03 0 0 0-.6-1.1Z" class="e"/><path d="M25.3 35.1c0-.6.2-1.1.6-1.5a3.02 3.02 0 0 1 2-.9l1.2-.2 3.3-.3.5.1c.3.1.4.4.5.6.2.5.3 1.1.2 1.6l-.2 2.2-.1.3c-.2.3-.7.4-1 .4-1.83.21-3.68.18-5.5-.1-1-.4-1.5-1.3-1.5-2.2Z" style="fill:#5d509e;stroke-width:0"/><path d="m19.8 29.3-.7-.2h-.6l.6.5h.2l.2.2.3-.1.2-.3v-.1h-.2Zm.2 13.3c1.4 0 2.8.4 4.2.9h.4c.5-.1-.1-1.4-.5-2.2-.1-.1-.2-.2-.3-.1h-.1c-.6.9-3.3 1.3-3.7 1.4Zm33.5 6.3v-.2.2Zm-.1-2.4v-1 1Zm.3-3.4c.3-.1.8-.1.9-.4v-.4c.14-.76.37-1.5.7-2.2l1-2.1a9.03 9.03 0 0 1-2.8 3l-.2 2.2.4-.1Zm-.3 4.6v1-1Zm0-1.2v1-1Z" style="fill:#ddc1a8;stroke-width:0"/><path d="M15.6 48c.31-.79.79-1.51 1.4-2.1 1.2-1.3 3-1.9 4.7-2.6a38.21 38.21 0 0 1 8.8-2.2c.8-.1 2-.3 2.6.3.3.3.5.7.7 1.2l.8 2.3c.2.6.2 1.3.2 1.9-.3 1.1-1 2-2 2.5-1.8.9-3.7 1.7-5.6 2.4-.7.3-1.4.7-2 1.3a4.18 4.18 0 0 1-2.9 1.6c-1.5.3-3 .2-4.4-.4-2.2-1.3-2.8-4-2.3-6.2Z" class="k"/><path d="M24 53.8c.6-.4 1.1-.9 1.5-1.4l.1-.1.1.1c.4.3-.7 1.2-.6 1.7v.5c-.1.2-.3.1-.5.1-1.3.2-.7-.5-2-.2l1.4-.7Zm8.6-5.8c-.6 0-7.6 2.8-8.6 3.1-1.4.6-2.8.9-4.2 1-1.6 0-2 .1-2.5.7l-.5.5 1.1.8c1.4.6 2.9.7 4.4.4.8 0 1.5-.3 2.1-.8l.8-.8c.6-.6 1.3-1 2-1.3 1.9-.7 3.8-1.5 5.6-2.4.6-.3 1.1-.8 1.4-1.3l-1.6.1Z" class="d"/><path d="m34.6 44.8-.8-2.3c-.1-.4-.4-.8-.7-1.2-.6-.6-1.8-.4-2.6-.3-1 .1-2 .2-3 .5-1.5.3-3 .8-4.5 1.3-2.9 1.8-3.8 4-3.1 5.9.8 2.4 4.6 3 8.6 2 1.5-.6 2.9-.7 4.3-1.5 1-.5 1.7-1.4 2-2.5 0-.7 0-1.3-.2-1.9Z" class="e"/><path d="M27.9 43.7c.7-.6 1.5-1.1 2.4-1.2l2.8-.6 1.3-.2c.3.1.6.5.9 1 .4.7.6 1.4.6 2.1l-.1.8-.6.5-1.5.6-2.4.7c-1 .2-2.1.5-3-.1-.4-.3-.7-.8-.8-1.3a3 3 0 0 1 .2-2.1l.2-.2Z" style="fill:#41439a;stroke-width:0"/><path d="m35.8 43.8-8.1 2.3c.1.4.4.8.7 1.1.8.7 2 .4 3 .1l2.4-.7 1.5-.6.6-.5.1-.8-.2-.9Z" style="fill:#fff;isolation:isolate;stroke-width:0;opacity:.4"/><path d="m33.7 54.2-1.2-.4c-2.4-.4-4.9-.3-7.3.4-2 .6-5.7 1.9-5.9 4.4-.1 1 .2 1.9.8 2.7.7 1.2 1.9 2 3.3 2.2 1 0 2.1-.3 3-.7 1-.3 1.9-.4 2.8-.8 2-.7 3.7-2 4.8-3.7.4-.6.7-1.4.7-2.2s-.4-1.5-1-1.9Z" class="k"/><path d="M30 60.6c-1.7.6-3.1.7-4.6 1.1s-3-1.2-3.9 1c.5.4 1.2.7 1.9.7 1 0 2.1-.3 3-.7 1-.3 1.9-.4 2.8-.8a9.03 9.03 0 0 0 4.2-3c-1.3.8-2.6 1.4-3.4 1.7Z" class="d"/><path d="m33.7 54.2-1.2-.4c-2.4-.4-4.8-.3-7.1.4-1.6 1.4-2.4 3-1.9 4.4.6 2.1 2.9 4.2 7.6 2.6a9.14 9.14 0 0 0 3-2.9c.4-.6.7-1.4.7-2.2-.1-.7-.5-1.5-1.1-1.9Z" class="e"/><path d="M27.8 57.7c.4.8 1.2 1.4 2.1 1.5.6.1 1.2.1 1.8-.1l2.1-.5c.5-.1.9-.3 1.2-.6l.3-.5c.2-.6.2-1.2 0-1.7-.1-.6-.4-1.3-1-1.4h-1c-1 .1-1.9.5-2.9.7-.6.1-1.17.3-1.7.6a2 2 0 0 0-1 1.4l.1.6Z" style="fill:#005c9f;stroke-width:0"/><path d="m23 23.2-.1.2c-.1.6.1 1.2.5 1.6.52.45 1.14.8 1.8 1l3.5 1h.4l.2-.3c.4-.2.7-.5 1-.9l.3-.6-7.6-2Zm2.3 12.2c.1.8.6 1.5 1.4 2l1.2.1h4.3c.3-.2.8-.2 1-.5l.1-.3.2-2-8.2.7Zm2.6 22.4c.4.8 1.2 1.3 2 1.4h1.8l2.1-.6c.5 0 .9-.3 1.2-.6l.3-.5c.2-.5.2-1 .1-1.5l-7.5 1.8Z" style="opacity:.3;fill:#fff;isolation:isolate;stroke-width:0"/><g class="u"><path d="M201.83 63.39h2.33l6.36 13.68h.1l.5-3.31 1.82-10.37h2.04l-3.05 17.18h-1.94l-6.65-14.33h-.1l-.48 3.31-1.97 11.02h-2.02l3.05-17.18Zm15.81 17.08a3.86 3.86 0 0 1-1.46-1.34 3.49 3.49 0 0 1-.54-1.91c0-1.36.5-2.44 1.5-3.25s2.37-1.21 4.12-1.21a7.87 7.87 0 0 1 3.52.84l.14-.72c.05-.27.07-.5.07-.7 0-.72-.29-1.3-.85-1.74a3.4 3.4 0 0 0-2.15-.66c-1.33 0-2.42.54-3.29 1.63l-1.58-1.13c.58-.74 1.3-1.31 2.18-1.72s1.85-.61 2.9-.61c1.47 0 2.63.36 3.47 1.07s1.26 1.67 1.26 2.87c0 .34-.04.74-.12 1.22l-1.34 7.46h-1.94l.31-1.73h-.1a4.8 4.8 0 0 1-4.11 2.12c-.72 0-1.39-.16-2-.49Zm5.34-2.4a4.64 4.64 0 0 0 1.51-2.8c-.5-.29-.99-.5-1.49-.65a7 7 0 0 0-1.87-.22c-1.01 0-1.83.24-2.46.71a2.3 2.3 0 0 0-.95 1.96c0 .64.23 1.15.68 1.52.46.38 1.02.56 1.69.56 1.1 0 2.06-.36 2.88-1.09Zm7.08 1.97a2.5 2.5 0 0 1-.79-1.93c0-.37.04-.76.12-1.18l1.2-6.74h-2.16l.34-1.85h2.14l.62-3.46h2.02l-.6 3.46h3l-.34 1.85h-3l-1.15 6.5c-.06.37-.1.68-.1.94 0 .4.12.71.37.92.25.22.58.32 1 .32.51 0 1-.14 1.46-.41l-.34 1.99c-.51.21-1.09.31-1.73.31-.85 0-1.54-.24-2.06-.73Zm8.59-11.7h2.04l-2.16 12.24h-2.02l2.14-12.24Zm.67-2.67c-.29-.29-.43-.63-.43-1.03s.14-.76.43-1.04.63-.42 1.03-.42.74.14 1.03.43.43.63.43 1.03-.14.74-.43 1.03-.63.43-1.03.43-.74-.14-1.03-.43Zm3.26 2.67h2.16l2.04 9.84h.05l5.54-9.84h2.21l-7.15 12.24h-2.09l-2.76-12.24Zm14.09 11.87a5 5 0 0 1-1.91-2.04 6.1 6.1 0 0 1-.66-2.82c0-1.28.29-2.49.86-3.62a6.97 6.97 0 0 1 2.45-2.74 6.47 6.47 0 0 1 3.62-1.03c1.06 0 1.97.23 2.74.7s1.35 1.09 1.75 1.87.6 1.65.6 2.59a6.1 6.1 0 0 1-.21 1.73h-9.7c-.03.32-.05.58-.05.77 0 .7.16 1.32.49 1.86.33.54.76.94 1.31 1.22.54.28 1.12.42 1.73.42.94 0 1.74-.2 2.4-.59a4.89 4.89 0 0 0 1.66-1.69l1.56.89a6.27 6.27 0 0 1-5.74 3.24c-1.1 0-2.07-.25-2.9-.76Zm7.42-7.05v-.34a2.9 2.9 0 0 0-1.51-2.61 3.58 3.58 0 0 0-1.78-.42c-1.02 0-1.92.32-2.68.96a4.93 4.93 0 0 0-1.57 2.4h7.54Z" class="l"/></g></svg>